# AST/ASF file generated using VICON BodyLanguage
# -----------------------------------------------
:version 1.10
:name VICON
:units
  mass 1.0
  length 0.45
  angle deg
:documentation
   .ast/.asf automatically generated from VICON data using
   VICON BodyBuilder and BodyLanguage model FoxedUp or BRILLIANT.MOD
:root
   order TX TY TZ RX RY RZ
   axis XYZ
   position 0 0 0  
   orientation 0 0 0 
:bonedata
  begin
     id 1 
     name lhipjoint
     direction 0.646657 -0.683706 0.338203 
     length 2.4948 
     axis 0 0 0  XYZ
  end
  begin
     id 2 
     name lfemur
     direction 0.34202 -0.939693 0  
     length 6.79491  
     axis 0 0 20  XYZ
    dof rx ry rz
    limits (-160.0 20.0)
           (-70.0 70.0)
           (-60.0 70.0)
  end
  begin
     id 3 
     name ltibia
     direction 0.34202 -0.939693 0   
     length 7.56807   
     axis 0 0 20   XYZ
    dof rx
    limits (-10.0 170.0)
  end
  begin
     id 4 
     name lfoot
     direction 0.0679796 -0.186772 0.980048   
     length 2.53018   
     axis -90 7.62852e-016 20   XYZ
    dof rx rz
    limits (-45.0 90.0)
           (-70.0 20.0)
  end
  begin
     id 5 
     name ltoes
     direction 1.53625e-011 -4.21881e-011 1   
     length 1.26912   
     axis -90 7.62852e-016 20   XYZ
    dof rx
    limits (-90.0 20.0)
  end
  begin
     id 6 
     name rhipjoint
     direction -0.618868 -0.704065 0.348274   
     length 2.42265  
     axis 0 0 0  XYZ 
  end
  begin
     id 7 
     name rfemur
     direction -0.34202 -0.939693 0   
     length 6.73814   
     axis 0 0 -20   XYZ
    dof rx ry rz
    limits (-160.0 20.0)
           (-70.0 70.0)
           (-70.0 60.0)
  end
  begin
     id 8 
     name rtibia
     direction -0.34202 -0.939693 0   
     length 7.66799   
     axis 0 0 -20   XYZ
    dof rx
    limits (-10.0 170.0)
 end
 begin
     id 9 
     name rfoot
     direction -0.0727352 -0.199838 0.977125   
     length 2.57224  
     axis -90 -7.62852e-016 -20   XYZ
    dof rx rz
    limits (-45.0 90.0)
           (-20.0 70.0)
  end
  begin
     id 10 
     name rtoes
     direction -1.53501e-011 -4.21858e-011 1   
     length 1.28858   
     axis -90 -7.62852e-016 -20   XYZ
    dof rx
    limits (-90.0 20.0)
  end
  begin
     id 11 
     name lowerback
     direction -0.0172471 0.995767 -0.0902851   
     length 2.20206   
     axis 0 0 0   XYZ
    dof rx ry rz
    limits (-20.0 45.0)
           (-30.0 30.0)
           (-30.0 30.0)
  end
  begin
     id 12 
     name upperback
     direction -0.000110737 0.999714 0.0239043   
     length 2.19523   
     axis 0 0 0   XYZ
    dof rx ry rz
    limits (-20.0 45.0)
           (-30.0 30.0)
           (-30.0 30.0)
  end
  begin
     id 13 
     name thorax
     direction 0.00704869 0.997783 0.0661741   
     length 2.21977   
     axis 0 0 0   XYZ
    dof rx ry rz
    limits (-20.0 45.0)
           (-30.0 30.0)
           (-30.0 30.0)
  end
  begin
     id 14 
     name lowerneck
     direction -0.00407501 0.995527 0.0943846   
     length 1.83142   
     axis 0 0 0   XYZ
    dof rx ry rz
    limits (-20.0 45.0)
           (-30.0 30.0)
           (-30.0 30.0)
  end
  begin
     id 15 
     name upperneck
     direction 0.0640586 0.986486 -0.150807   
     length 1.84616   
     axis 0 0 0   XYZ
    dof rx ry rz
    limits (-20.0 45.0)
           (-30.0 30.0)
           (-30.0 30.0)
  end
  begin
     id 16
     name head
     direction 0.0188017 0.99791 -0.0618239  
     length 1.85932  
     axis 0 0 0   XYZ
    dof rx ry rz
    limits (-20.0 45.0)
           (-30.0 30.0)
           (-30.0 30.0)
  end
  begin
     id 17 
     name lclavicle
     direction 0.976074 0.206905 0.066852  
     length 3.81043  
     axis 0 0 0   XYZ
    dof ry rz
    limits (-20.0 10.0)
           (0.0 20.0)
  end
  begin
     id 18 
     name lhumerus
     direction 1 -4.48971e-011 1.86916e-027   
     length 5.37587   
     axis 180 -30 -90   XYZ
    dof rx ry rz
    limits (-60.0 90.0)
           (-90.0 90.0)
           (-90.0 90.0)
  end
  begin
     id 19
     name lradius
     direction 1 -4.48968e-011 1.69187e-027   
     length 3.35977   
     axis 180 -30 -90   XYZ
    dof rx
    limits (-10.0 170.0)
  end
  begin
     id 20
     name lwrist
     direction 1 -4.48968e-011 5.8978e-027   
     length 1.67988   
     axis -3.27506e-015 90 90   XYZ
    dof ry
    limits (-180.0 0.0)
 end
  begin
     id 21 
     name lhand
     direction 1 -4.49028e-011 1.18071e-026   
     length 0.561859   
     axis -7.52654e-015 90 90   XYZ
    dof rx rz
    limits (-90.0 90.0)
           (-45.0 45.0)
  end
  begin
     id 22 
     name lfingers
     direction 1 -4.48927e-011 2.35758e-026   
     length 0.452985   
     axis -1.50534e-014 90 90   XYZ
    dof rx
    limits (0.0 90.0)
  end
  begin
     id 23
     name lthumb
     direction 0.707107 -6.34898e-011 0.707107   
     length 0.650399   
     axis -90 45 5.69224e-014   XYZ
    dof rx rz
    limits (-45.0 45.0)
           (-45.0 45.0)
  end
  begin
     id 24 
     name rclavicle
     direction -0.988403 0.151789 0.00439714   
     length 3.6942  
     axis 0 0 0   XYZ 
    dof ry rz
    limits (-10.0 20.0)
           (-20.0 0.0)
  end
  begin
     id 25 
     name rhumerus
     direction -1 -4.48978e-011 1.62495e-027  
     length 5.22819   
     axis 180 30 90   XYZ
    dof rx ry rz
    limits (-90.0 60.0)
           (-90.0 90.0)
           (-90.0 90.0)
  end
  begin
     id 26 
     name rradius
     direction -1 -4.48961e-011 3.47796e-027   
     length 3.40764   
     axis 180 30 90   XYZ
    dof rx
    limits (-10.0 170.0)
  end
  begin
     id 27 
     name rwrist
     direction -1 -4.48949e-011 5.89602e-027   
     length 1.70382   
     axis -3.27506e-015 -90 -90   XYZ
    dof ry
    limits (-180.0 0.0)
  end
  begin
     id 28
     name rhand
     direction -1 -4.48977e-011 1.17973e-026   
     length 0.583255   
     axis -7.52654e-015 -90 -90   XYZ
    dof rx rz
    limits (-90.0 90.0)
           (-45.0 45.0)
  end
  begin
     id 29
     name rfingers
     direction -1 -4.49099e-011 2.36408e-026   
     length 0.470235   
     axis -1.50534e-014 -90 -90   XYZ
    dof rx
    limits (0.0 90.0)
  end
  begin
     id 30
     name rthumb
     direction -0.707107 -6.35011e-011 0.707107   
     length 0.675167   
     axis -90 -45 -5.69224e-014   XYZ
    dof rx rz
    limits (-45.0 45.0)
           (-45.0 45.0)
  end
:hierarchy
  begin
    root lhipjoint rhipjoint lowerback
    lhipjoint lfemur
    lfemur ltibia
    ltibia lfoot
    lfoot ltoes
    rhipjoint rfemur
    rfemur rtibia
    rtibia rfoot
    rfoot rtoes
    lowerback upperback
    upperback thorax
    thorax lowerneck lclavicle rclavicle
    lowerneck upperneck
    upperneck head
    lclavicle lhumerus
    lhumerus lradius
    lradius lwrist
    lwrist lhand lthumb
    lhand lfingers
    rclavicle rhumerus
    rhumerus rradius
    rradius rwrist
    rwrist rhand rthumb
    rhand rfingers
  end

#!OML:ASF G:\JayActor3\Patient Classification 1\Patient 1\Session 2\male.ASF
:FULLY-SPECIFIED
:DEGREES
662
root -34.1476 16.5345 -5.80603 918.376 -94.6175 -925.162
lowerback 1.21256 0.510266 -2.00911
upperback 1.82793 0.65647 -1.97281
thorax 1.19344 0.302216 -0.896665
lowerneck -10.431 -3.90091 -4.95793
upperneck 11.4434 -5.47324 6.83904
head 5.48733 -2.44869 2.51595
rclavicle 6.60959e-015 -1.19271e-014
rhumerus -35.4825 21.3346 -95.9082
rradius 43.4018
rwrist -7.21484
rhand -23.5431 1.42917
rfingers 7.12502
rthumb 2.91862 -28.5306
lclavicle 6.60959e-015 -1.19271e-014
lhumerus -48.873 7.42646 75.7014
lradius 27.8372
lwrist 15.402
lhand -22.7502 22.1157
lfingers 7.12502
lthumb 3.68429 52.0636
rfemur -9.35505 0.0152705 19.4559
rtibia 65.8537
rfoot -13.5381 -2.52949
rtoes 9.88152
lfemur -13.5452 10.5988 -22.325
ltibia 31.933
lfoot -13.9798 18.446
ltoes 10.3586
663
root -34.2483 16.5561 -5.78781 913.744 -95.6135 -920.395
lowerback 1.13266 0.424111 -2.18791
upperback 1.78318 0.543198 -1.99023
thorax 1.19088 0.243818 -0.813808
lowerneck -10.543 -3.89429 -4.8904
upperneck 11.6522 -5.45696 6.6598
head 5.56337 -2.44524 2.44779
rclavicle -6.4605e-016 1.27222e-014
rhumerus -35.8807 20.4859 -95.6197
rradius 41.213
rwrist -6.06876
rhand -22.9324 1.31621
rfingers 7.12502
rthumb 3.50835 -28.6347
lclavicle -6.4605e-016 1.27222e-014
lhumerus -47.7704 6.26246 77.3865
lradius 30.5529
lwrist 16.9943
lhand -22.6152 21.9501
lfingers 7.12502
lthumb 3.81469 51.8957
rfemur -10.432 -0.112429 19.4401
rtibia 66.849
rfoot -13.932 -2.16674
rtoes 9.55322
lfemur -13.0894 9.88705 -22.4369
ltibia 31.4886
lfoot -13.6809 17.9004
ltoes 9.60875
664
root -34.3475 16.574 -5.77033 911.059 -96.7392 -917.574
lowerback 1.07842 0.328227 -2.26055
upperback 1.74395 0.417 -1.99296
thorax 1.18085 0.180473 -0.775591
lowerneck -10.6513 -3.83931 -4.80579
upperneck 11.8102 -5.37484 6.48644
head 5.61892 -2.40917 2.38455
rclavicle 6.75868e-015 2.06736e-014
rhumerus -36.282 19.5852 -95.3004
rradius 39.0559
rwrist -4.76024
rhand -22.3876 1.21232
rfingers 7.12502
rthumb 4.03448 -28.7292
lclavicle 6.75868e-015 2.06736e-014
lhumerus -46.6352 5.04801 78.9613
lradius 33.1994
lwrist 18.2701
lhand -22.4997 21.7554
lfingers 7.12502
lthumb 3.92625 51.699
rfemur -11.4747 -0.220659 19.5373
rtibia 67.6088
rfoot -14.3061 -1.72948
rtoes 8.99917
lfemur -12.7363 9.24028 -22.4493
ltibia 31.1886
lfoot -13.399 17.2101
ltoes 8.83168
665
root -34.4459 16.5884 -5.75358 909.374 -97.9525 -915.762
lowerback 1.04708 0.228384 -2.26803
upperback 1.714 0.285223 -1.99202
thorax 1.16805 0.11517 -0.770277
lowerneck -10.7289 -3.72812 -4.70648
upperneck 11.9011 -5.21811 6.33106
head 5.64438 -2.33616 2.33173
rclavicle -2.23633e-015 2.22639e-014
rhumerus -36.6929 18.6343 -94.9567
rradius 36.9545
rwrist -3.35429
rhand -21.9535 1.29533
rfingers 7.12502
rthumb 4.45371 -28.6378
lclavicle -2.23633e-015 2.22639e-014
lhumerus -45.4673 3.77442 80.4384
lradius 35.7675
lwrist 19.2507
lhand -22.3903 21.5256
lfingers 7.12502
lthumb 4.03184 51.4672
rfemur -12.4761 -0.285978 19.7037
rtibia 68.1529
rfoot -14.6577 -1.26587
rtoes 8.18917
lfemur -12.4669 8.67374 -22.4052
ltibia 31.0136
lfoot -13.0941 16.422
ltoes 7.82685
666
root -34.5421 16.5991 -5.73768 908.267 -99.22 -914.535
lowerback 1.04548 0.134233 -2.23019
upperback 1.69476 0.160287 -1.99053
thorax 1.14968 0.0537996 -0.78986
lowerneck -10.8186 -3.57134 -4.5776
upperneck 11.9665 -4.99987 6.16121
head 5.65978 -2.23282 2.27478
rclavicle 8.24956e-015 9.54166e-015
rhumerus -37.1138 17.6454 -94.5875
rradius 34.9397
rwrist -1.93232
rhand -21.6182 1.54552
rfingers 7.12502
rthumb 4.77747 -28.3806
lclavicle 8.24956e-015 9.54166e-015
lhumerus -44.2609 2.43912 81.8328
lradius 38.2537
lwrist 19.9826
lhand -22.3112 21.2267
lfingers 7.12502
lthumb 4.10822 51.1668
rfemur -13.4544 -0.283612 19.9154
rtibia 68.5088
rfoot -15.0047 -0.790812
rtoes 7.24023
lfemur -12.2641 8.15966 -22.3191
ltibia 30.9485
lfoot -12.9158 15.5075
ltoes 7.16024
667
root -34.6364 16.6051 -5.72306 907.408 -100.524 -913.57
lowerback 1.08811 0.0530594 -2.17485
upperback 1.68741 0.0511795 -1.99526
thorax 1.11853 0.000481934 -0.825621
lowerneck -10.8982 -3.37865 -4.39688
upperneck 11.9895 -4.73288 5.94788
head 5.65592 -2.10693 2.20008
rclavicle 2.33572e-015 3.97569e-014
rhumerus -37.5519 16.6181 -94.1975
rradius 33.028
rwrist -0.548686
rhand -21.3871 1.94712
rfingers 7.12502
rthumb 5.00057 -27.9739
lclavicle 2.33572e-015 3.97569e-014
lhumerus -43.0239 1.038 83.1509
lradius 40.6652
lwrist 20.513
lhand -22.2306 20.8394
lfingers 7.12502
lthumb 4.18607 50.778
rfemur -14.4048 -0.202503 20.1396
rtibia 68.7025
rfoot -15.3738 -0.328697
rtoes 6.20877
lfemur -12.1298 7.72004 -22.2283
ltibia 30.9784
lfoot -12.7208 14.5784
ltoes 6.25389
